<svg xmlns="http://www.w3.org/2000/svg" xmlns:xlink="http://www.w3.org/1999/xlink" width="459" height="142" overflow="hidden" xml:space="preserve"><defs><clipPath id="clip0"><rect width="459" height="142" x="2653" y="632"/></clipPath><clipPath id="clip1"><rect width="459" height="142" x="2653" y="632"/></clipPath><clipPath id="clip2"><rect width="84" height="65" x="2723" y="672"/></clipPath><clipPath id="clip3"><rect width="84" height="65" x="2723" y="672"/></clipPath><clipPath id="clip4"><rect width="84" height="65" x="2723" y="672"/></clipPath></defs><g clip-path="url(#clip0)" transform="translate(-2653 -632)"><g clip-path="url(#clip1)"><path fill="#55AEA6" fill-opacity="1" fill-rule="evenodd" d="M2658 704C2658 666.997 2688 637 2725 637L3045 637C3082 637 3112 666.997 3112 704L3112 704C3112 741.003 3082 771 3045 771L2725 771C2688 771 2658 741.003 2658 704Z"/><text fill="#FFF" fill-opacity="1" direction="ltr" font-family="Noto Sans SC,Noto Sans SC_MSFontService,sans-serif" font-size="48" font-stretch="normal" font-style="normal" font-variant="normal" font-weight="400" text-anchor="start" text-decoration="none" transform="matrix(1 0 0 1 2841.2 721)" unicode-bidi="normal" writing-mode="lr-tb">線上閱讀</text><g clip-path="url(#clip2)"><g clip-path="url(#clip3)"><g clip-path="url(#clip4)"><path fill="#FFF" fill-opacity="1" fill-rule="nonzero" d="M16.25 0C11.7685 0 8.125 3.64355 8.125 8.125L8.125 36.5625 2.4375 36.5625C1.0918 36.5625 0 37.6543 0 39 0 44.3828 4.36719 48.75 9.75 48.75L40.625 48.75 40.625 36.5625 16.25 36.5625 16.25 8.125 56.875 8.125 56.875 12.1875 65 12.1875 65 8.125C65 3.64355 61.3564 0 56.875 0L16.25 0ZM65 16.25 50.7812 16.25C47.417 16.25 44.6875 18.9795 44.6875 22.3437L44.6875 58.9062C44.6875 62.2705 47.417 65 50.7812 65L75.1562 65C78.5205 65 81.25 62.2705 81.25 58.9062L81.25 32.5 69.0625 32.5C66.8154 32.5 65 30.6846 65 28.4375L65 16.25ZM69.0625 16.25 69.0625 28.4375 81.25 28.4375 69.0625 16.25Z" transform="matrix(1.00923 0 0 1 2724 672)"/></g></g></g></g></g></svg>